<svg viewBox="0 0 32 32" xml:space="preserve" xmlns="http://www.w3.org/2000/svg" enable-background="new 0 0 32 32">
    <path
        d="M30 13.5C30 9.9 27.1 7 23.5 7h-.6c-1.4-2.4-4-4-6.9-4-3 0-5.6 1.6-6.9 4h-.6C4.9 7 2 9.9 2 13.5c0 3.2 2.4 5.9 5.4 6.4l-.4 8c0 .3.1.5.3.7.2.3.4.4.7.4h16c.3 0 .5-.1.7-.3.2-.2.3-.5.3-.7l-.4-8c3-.6 5.4-3.3 5.4-6.5zM13 23.9c-.1.5-.5.8-1 .8h-.2c-.5-.1-.9-.6-.8-1.2l.5-2.7c.1-.5.6-.9 1.2-.8.5.1.9.6.8 1.2l-.5 2.7zm4 .1c0 .6-.4 1-1 1s-1-.4-1-1v-3c0-.6.4-1 1-1s1 .4 1 1v3zm3.1.7h-.2c-.5 0-.9-.3-1-.8l-.5-2.7c-.1-.5.3-1.1.8-1.2.5-.1 1.1.3 1.2.8l.5 2.7c.1.6-.2 1.1-.8 1.2z"
        fill="#ffffff" class="fill-000000"></path>
</svg>