<?xml version="1.0" ?>
<svg enable-background="new 0 0 64 64" id="Слой_1" version="1.1" viewBox="0 0 64 64"
    xml:space="preserve" xmlns="http://www.w3.org/2000/svg" xmlns:xlink="http://www.w3.org/1999/xlink">
    <g id="row_2">
        <g id="pan">
            <path d="M39.2,42.7l-1.4-1.4l3.5-3.5l1.4,1.4c0.8,0.8,0.8,2,0,2.8L42,42.7C41.3,43.5,40,43.5,39.2,42.7z"
                fill="#CFD8DC" />
            <path
                d="M56,59.5c-0.9,0-1.8-0.3-2.5-1L39.8,44.1c-1.4-1.4,2.9-5.6,4.2-4.2l14.4,13.7c1.4,1.4,1.4,3.6,0,5    C57.8,59.2,56.9,59.5,56,59.5z"
                fill="#263238" />
            <circle cx="25" cy="25" fill="#BDBDBD" r="22" />
            <circle cx="25" cy="25" fill="#212121" r="21" />
            <circle cx="25" cy="25" fill="#424242" r="17" />
            <circle cx="28" cy="28" fill="#FBE9E7" r="13" />
            <circle cx="33" cy="33" fill="#FFC107" r="5" />
        </g>
    </g>
</svg>